<svg xmlns="http://www.w3.org/2000/svg" width="112.248" height="19.471" viewBox="0 0 112.248 19.471">
  <g id="Group_4437" data-name="Group 4437" transform="translate(-113.032 -358.867)">
    <path id="Path_1" data-name="Path 1" d="M159.38,379.818a4.486,4.486,0,0,1-2,.6c-.9,0-1.423-.443-1.423-1.877v-6.647h3.92v-2.241h-3.92v-3.806l-2.846,1.642v2.164H151.24v2.241h1.873v7.194c0,2.841,1.723,4.04,3.72,4.04a6.184,6.184,0,0,0,3.271-1.017Z" transform="translate(-26.224 -4.791)" fill="#fff"/>
    <path id="Path_2" data-name="Path 2" d="M355,385.083c-.15,1.512-1.723,2.633-3.77,2.633-1.6,0-2.572-.808-2.572-2.059,0-1.33.874-1.851,2.747-1.851H355Zm-2.547-9.1a9.436,9.436,0,0,0-5.718,1.746l1.173,2.085a6.811,6.811,0,0,1,3.92-1.407c2.1,0,3.171,1.043,3.171,2.789v.417h-4.02c-3.2.026-5.018,1.642-5.018,4.171,0,2.45,1.8,4.3,4.669,4.3a5.276,5.276,0,0,0,4.394-1.824v1.694h2.821l-.025-9.1c-.025-3.05-1.947-4.874-5.368-4.874" transform="translate(-159.869 -11.75)" fill="#fff"/>
    <path id="Path_3" data-name="Path 3" d="M193.473,385.083c-.15,1.512-1.723,2.633-3.77,2.633-1.6,0-2.572-.808-2.572-2.059,0-1.33.874-1.851,2.747-1.851h3.6Zm-2.547-9.1a9.437,9.437,0,0,0-5.718,1.746l1.173,2.085a6.811,6.811,0,0,1,3.92-1.407c2.1,0,3.171,1.043,3.171,2.789v.417h-4.02c-3.2.026-5.018,1.642-5.018,4.171,0,2.45,1.8,4.3,4.669,4.3a5.276,5.276,0,0,0,4.394-1.824v1.694h2.822l-.025-9.1c-.025-3.05-1.947-4.874-5.368-4.874" transform="translate(-49.007 -11.75)" fill="#fff"/>
    <path id="Path_4" data-name="Path 4" d="M394.411,379.682c0-.99.824-1.381,1.947-1.381a7.574,7.574,0,0,1,3.82,1.225l1.049-2.215a8.14,8.14,0,0,0-4.644-1.408c-2.547,0-4.894,1.2-4.894,4.014-.025,5,6.966,3.415,6.966,6.256,0,1.043-.949,1.486-2.172,1.486a7.057,7.057,0,0,1-4.444-1.72l-1.024,2.137A8,8,0,0,0,396.358,390c2.672,0,5.093-1.277,5.093-4.118.025-5.031-7.041-3.649-7.041-6.2" transform="translate(-190.793 -11.693)" fill="#fff"/>
    <path id="Path_5" data-name="Path 5" d="M116.428,379.682c0-.99.824-1.381,1.947-1.381a7.574,7.574,0,0,1,3.82,1.225l1.049-2.215A8.14,8.14,0,0,0,118.6,375.9c-2.547,0-4.894,1.2-4.894,4.014-.025,5,6.966,3.415,6.966,6.256,0,1.043-.949,1.486-2.172,1.486a7.057,7.057,0,0,1-4.444-1.72l-1.024,2.137A8,8,0,0,0,118.375,390c2.672,0,5.093-1.277,5.093-4.118.025-5.031-7.041-3.649-7.041-6.2" transform="translate(0 -11.693)" fill="#fff"/>
    <path id="Path_6" data-name="Path 6" d="M234.011,378.853V376.09H231.14v13.867h2.871v-7.246a4.074,4.074,0,0,1,4.594-3.858v-2.867a4.808,4.808,0,0,0-4.594,2.867" transform="translate(-81.063 -11.75)" fill="#fff"/>
    <path id="Path_7" data-name="Path 7" d="M303.507,375.757c-2.372,0-4.045-1.851-4.045-4.535,0-2.607,1.673-4.483,4.045-4.483s4.045,1.9,4.045,4.483c0,2.659-1.673,4.535-4.045,4.535m.6-11.521a5.133,5.133,0,0,0-4.644,2.5v-7.872h0l-2.871,1.641v17.7h2.871v-2.4a5.159,5.159,0,0,0,4.694,2.5c3.8,0,6.292-2.841,6.292-6.986,0-4.223-2.572-7.09-6.342-7.09" transform="translate(-125.985)" fill="#fff"/>
    <path id="Path_8" data-name="Path 8" d="M432.388,381.981a3.823,3.823,0,0,1,3.9-3.6,3.477,3.477,0,0,1,3.7,3.6Zm3.87-6c-3.945.026-6.716,2.867-6.716,7.064,0,4.171,2.7,7.012,6.791,7.012a7.081,7.081,0,0,0,5.493-2.346l-1.523-1.694a5.058,5.058,0,0,1-3.745,1.616,4.089,4.089,0,0,1-4.12-3.466h10.037c.35-5-1.548-8.185-6.217-8.185" transform="translate(-217.236 -11.75)" fill="#fff"/>
    <path id="Path_9" data-name="Path 9" d="M268.607,379.818a4.486,4.486,0,0,1-2,.6c-.9,0-1.423-.443-1.423-1.877v-6.647h3.92v-2.241h-3.92v-3.806l-2.846,1.642v2.164h-1.873v2.241h1.873v7.194c0,2.841,1.723,4.04,3.72,4.04a6.182,6.182,0,0,0,3.271-1.017Z" transform="translate(-101.192 -4.791)" fill="#fff"/>
  </g>
</svg>
