<svg xmlns="http://www.w3.org/2000/svg" width="712" height="123.506" viewBox="0 0 712 123.506">
  <g id="Logo" transform="translate(-113.032 -358.867)">
    <path id="Tracciato_1" data-name="Tracciato 1" d="M202.87,454.469c-4.91,2.481-8.869,3.8-12.669,3.8-5.7,0-9.028-2.809-9.028-11.9V404.205h24.865V389.988H181.172V365.847L163.119,376.26v13.728H151.24v14.217h11.879v45.634c0,18.021,10.927,25.627,23.6,25.627,7.129,0,14.1-2.314,20.749-6.448Z" transform="translate(37.808 6.907)" fill="#e84255"/>
    <path id="Tracciato_2" data-name="Tracciato 2" d="M403.291,433.688c-.951,9.589-10.929,16.7-23.916,16.7-10.135,0-16.312-5.127-16.312-13.061,0-8.434,5.543-11.74,17.422-11.74h22.806Zm-16.155-57.7c-16,0-24.549,3.8-36.267,11.078l7.443,13.226c8.394-5.951,16.788-8.927,24.865-8.927,13.3,0,20.114,6.613,20.114,17.691V411.7h-25.5c-20.271.167-31.833,10.417-31.833,26.455,0,15.542,11.4,27.28,29.616,27.28,12.194,0,21.855-3.8,27.873-11.573v10.747h17.9l-.157-57.7c-.159-19.344-12.353-30.917-34.051-30.917" transform="translate(230.488 16.94)" fill="#e84255"/>
    <path id="Tracciato_3" data-name="Tracciato 3" d="M241.766,433.688c-.951,9.589-10.929,16.7-23.916,16.7-10.135,0-16.312-5.127-16.312-13.061,0-8.434,5.543-11.74,17.422-11.74h22.806Zm-16.153-57.7c-16,0-24.551,3.8-36.269,11.078l7.443,13.226c8.394-5.951,16.788-8.927,24.865-8.927,13.3,0,20.114,6.613,20.114,17.691V411.7h-25.5c-20.271.167-31.832,10.417-31.832,26.455,0,15.542,11.4,27.28,29.616,27.28,12.194,0,21.855-3.8,27.873-11.573v10.747h17.9l-.159-57.7c-.159-19.344-12.353-30.917-34.049-30.917" transform="translate(70.654 16.94)" fill="#e84255"/>
    <path id="Tracciato_4" data-name="Tracciato 4" d="M412.554,399.877c0-6.283,5.226-8.762,12.353-8.762,7.443,0,16.788,2.974,24.231,7.769l6.653-14.052c-7.6-5.622-18.847-8.929-29.459-8.929-16.153,0-31.041,7.606-31.041,25.462-.157,31.745,44.187,21.66,44.187,39.681,0,6.613-6.018,9.424-13.779,9.424-9.186,0-20.906-4.134-28.19-10.913l-6.494,13.557c8.394,7.936,21.539,12.236,33.892,12.236,16.947,0,32.308-8.1,32.308-26.123.159-31.91-44.661-23.148-44.661-39.351" transform="translate(275.073 16.858)" fill="#e84255"/>
    <path id="Tracciato_5" data-name="Tracciato 5" d="M134.571,399.877c0-6.283,5.226-8.762,12.353-8.762,7.443,0,16.788,2.974,24.23,7.769l6.653-14.052c-7.6-5.622-18.847-8.929-29.457-8.929-16.155,0-31.043,7.606-31.043,25.462-.157,31.745,44.187,21.66,44.187,39.681,0,6.613-6.018,9.424-13.78,9.424-9.186,0-20.906-4.134-28.19-10.913l-6.494,13.557c8.394,7.936,21.539,12.236,33.892,12.236,16.947,0,32.308-8.1,32.308-26.123.159-31.91-44.661-23.148-44.661-39.351" transform="translate(0 16.858)" fill="#e84255"/>
    <path id="Tracciato_6" data-name="Tracciato 6" d="M249.352,394.172V376.647H231.14v87.959h18.212V418.642c1.424-15.045,12.194-25.462,29.141-24.469V375.986c-13.3,0-23.439,6.283-29.141,18.186" transform="translate(116.871 16.94)" fill="#e84255"/>
    <path id="Tracciato_7" data-name="Tracciato 7" d="M340.462,466.005c-15.047,0-25.657-11.738-25.657-28.769,0-16.535,10.61-28.438,25.657-28.438s25.655,12.07,25.655,28.438c0,16.863-10.61,28.769-25.655,28.769m3.8-73.079c-13.145,0-23.281,5.622-29.457,15.872V358.867h0l-18.21,10.411V481.547h18.214V466.335c6.176,10.252,16.312,15.872,29.773,15.872,24.073,0,39.91-18.021,39.91-44.311,0-26.785-16.312-44.971-40.226-44.971" transform="translate(181.637 0)" fill="#e84255"/>
    <path id="Tracciato_8" data-name="Tracciato 8" d="M447.6,414.014C449.5,399.96,459,391.2,472.3,391.2c13.778,0,22.8,8.6,23.439,22.816Zm24.549-38.028c-25.022.165-42.6,18.186-42.6,44.806,0,26.455,17.1,44.476,43.077,44.476,14.569,0,26.606-5.455,34.843-14.88L497.8,439.641a32.083,32.083,0,0,1-23.757,10.25c-13.3,0-23.279-8.432-26.13-21.988h63.665c2.218-31.745-9.818-51.917-39.435-51.917" transform="translate(313.196 16.94)" fill="#e84255"/>
    <path id="Tracciato_9" data-name="Tracciato 9" d="M312.1,454.469c-4.91,2.481-8.869,3.8-12.669,3.8-5.7,0-9.029-2.809-9.029-11.9V404.205h24.865V389.988H290.4V365.847L272.346,376.26v13.728H260.467v14.217h11.879v45.634c0,18.021,10.927,25.627,23.6,25.627,7.129,0,14.1-2.314,20.747-6.448Z" transform="translate(145.891 6.907)" fill="#e84255"/>
  </g>
</svg>
