<svg xmlns="http://www.w3.org/2000/svg" width="128.503" height="119.583" viewBox="0 0 128.503 119.583">
  <g id="Raggruppa_4590" data-name="Raggruppa 4590" transform="translate(-2306.039 -465.962)">
    <g id="Icon" transform="translate(2306.039 465.962)">
      <path id="Tracciato_753" data-name="Tracciato 753" d="M-1807.212,108.428l-2.469,1.265,8.638,16.843h-110.608l34.141-70.067,11.707,13.379,11.245-16.746,12.366,10.734,5.737-6.362,7.93,15.467.2.391,2.469-1.263-31.966-62.343-58.266,119.583H-1796.5Zm-50.545-92.5,19.954,38.916-4.619,5.082-12.694-11.018-10.98,16.352-10.083-11.523Z" transform="translate(1916.087 -9.726)" fill="#df2a44"/>
      <path id="Tracciato_754" data-name="Tracciato 754" d="M-1789.543,102.236H-1838.7l12.753-10.019-1.73-2.2-17.261,13.561,17.256,13.678,1.74-2.194-12.647-10.024h49.048Z" transform="translate(1916.087 -9.726)" fill="#df2a44"/>
      <path id="Tracciato_755" data-name="Tracciato 755" d="M-1806.579,66.1l12.647,10.024h-49.049v2.8h49.158l-12.752,10.019,1.73,2.2,17.261-13.562-17.257-13.678Z" transform="translate(1916.087 -9.726)" fill="#df2a44"/>
    </g>
  </g>
</svg>
