<svg xmlns="http://www.w3.org/2000/svg" width="119.577" height="119.576" viewBox="0 0 119.577 119.576">
  <g id="Raggruppa_4589" data-name="Raggruppa 4589" transform="translate(-2523.686 -465.945)">
    <g id="Icon" transform="translate(0 38.214)">
      <path id="Tracciato_756" data-name="Tracciato 756" d="M-1609.891,9.709h-92.018V129.285h119.577V37.4Zm-70.992,84.486a6.6,6.6,0,0,1-6.595-6.6,6.6,6.6,0,0,1,6.595-6.6,6.6,6.6,0,0,1,6.6,6.6A6.6,6.6,0,0,1-1680.883,94.195Zm68.235,0a6.6,6.6,0,0,1-6.6-6.6,6.6,6.6,0,0,1,6.6-6.6,6.6,6.6,0,0,1,6.6,6.6A6.6,6.6,0,0,1-1612.648,94.195Zm27.53,32.305H-1611.4V96.888a9.389,9.389,0,0,0,8.138-9.289,9.392,9.392,0,0,0-9.382-9.38,9.391,9.391,0,0,0-9.381,9.38,9.388,9.388,0,0,0,7.838,9.243V126.5h-39.085V82.809l34.987-35.355a9.323,9.323,0,0,0,5.641,1.9,9.392,9.392,0,0,0,9.382-9.381,9.392,9.392,0,0,0-9.382-9.381,9.391,9.391,0,0,0-9.381,9.381,9.315,9.315,0,0,0,1.79,5.489l-35.823,36.2V126.5h-23.574V96.887A9.389,9.389,0,0,0-1671.5,87.6a9.392,9.392,0,0,0-9.382-9.38,9.392,9.392,0,0,0-9.382,9.38,9.389,9.389,0,0,0,7.843,9.244V126.5h-16.7V41.85h29.243a9.389,9.389,0,0,0,9.244,7.839,9.391,9.391,0,0,0,9.381-9.381,9.391,9.391,0,0,0-9.381-9.38,9.39,9.39,0,0,0-9.29,8.137h-29.2V12.494h88.074l25.931,26.052Zm-34.125-86.524a6.6,6.6,0,0,1,6.6-6.6,6.6,6.6,0,0,1,6.6,6.6,6.6,6.6,0,0,1-6.6,6.6A6.6,6.6,0,0,1-1619.243,39.976Zm-47.989.332a6.6,6.6,0,0,1,6.6-6.595,6.6,6.6,0,0,1,6.595,6.595,6.6,6.6,0,0,1-6.595,6.6A6.6,6.6,0,0,1-1667.232,40.308Z" transform="translate(4225.595 418.022)" fill="#df2a44"/>
    </g>
  </g>
</svg>
