<svg xmlns="http://www.w3.org/2000/svg" width="126.244" height="126.243" viewBox="0 0 126.244 126.243">
  <g id="Raggruppa_4599" data-name="Raggruppa 4599" transform="translate(-564.466 -464.934)">
    <g id="Icon" transform="translate(564.466 464.934)">
      <g id="Raggruppa_1033" data-name="Raggruppa 1033">
        <path id="Tracciato_732" data-name="Tracciato 732" d="M-3563.156,134.941a63.194,63.194,0,0,1-63.122-63.122A63.193,63.193,0,0,1-3563.156,8.7a63.193,63.193,0,0,1,63.122,63.121A63.194,63.194,0,0,1-3563.156,134.941Zm0-123.312a60.258,60.258,0,0,0-60.191,60.19,60.258,60.258,0,0,0,60.191,60.191,60.258,60.258,0,0,0,60.19-60.191A60.258,60.258,0,0,0-3563.156,11.629Z" transform="translate(3626.278 -8.698)" fill="#df2a44"/>
      </g>
      <g id="Raggruppa_1034" data-name="Raggruppa 1034" transform="translate(20.191 20.19)">
        <path id="Tracciato_733" data-name="Tracciato 733" d="M-3563.156,114.751a42.979,42.979,0,0,1-42.931-42.931,42.979,42.979,0,0,1,42.931-42.932,42.98,42.98,0,0,1,42.931,42.932A42.98,42.98,0,0,1-3563.156,114.751Zm0-82.932a40.046,40.046,0,0,0-40,40,40.045,40.045,0,0,0,40,40,40.045,40.045,0,0,0,40-40A40.045,40.045,0,0,0-3563.156,31.819Z" transform="translate(3606.087 -28.888)" fill="#df2a44"/>
      </g>
      <g id="Raggruppa_1035" data-name="Raggruppa 1035" transform="translate(41.421 41.42)">
        <path id="Tracciato_734" data-name="Tracciato 734" d="M-3563.156,93.52a21.725,21.725,0,0,1-21.7-21.7,21.726,21.726,0,0,1,21.7-21.7,21.727,21.727,0,0,1,21.7,21.7A21.726,21.726,0,0,1-3563.156,93.52Zm0-40.47a18.79,18.79,0,0,0-18.77,18.769,18.791,18.791,0,0,0,18.77,18.77,18.79,18.79,0,0,0,18.769-18.77A18.789,18.789,0,0,0-3563.156,53.05Z" transform="translate(3584.857 -50.118)" fill="#df2a44"/>
      </g>
    </g>
  </g>
</svg>
