<svg xmlns="http://www.w3.org/2000/svg" width="109.746" height="119.563" viewBox="0 0 109.746 119.563">
  <g id="Raggruppa_4586" data-name="Raggruppa 4586" transform="translate(-3134.22 -465.962)">
    <g id="Icon" transform="translate(0 38.214)">
      <path id="Tracciato_760" data-name="Tracciato 760" d="M-1051.226,9.726a59.514,59.514,0,0,0-32.2,9.416,11.688,11.688,0,0,0-7.491-2.689,11.7,11.7,0,0,0-8.33,3.452l-.986.986,3.731,3.731-4.689,4.688,1.974,1.973,4.688-4.688,4.977,4.978-4.688,4.688,1.974,1.973,4.688-4.688,4.005,4.006.987-.987a11.7,11.7,0,0,0,3.45-8.331,11.677,11.677,0,0,0-2.339-7.026,56.728,56.728,0,0,1,30.247-8.692,57.055,57.055,0,0,1,56.991,56.992,57.055,57.055,0,0,1-56.991,56.99,56.589,56.589,0,0,1-39.32-15.76l7.663-8.447c7.5,7.28,15.669,10.931,23.822,10.931,8.276,0,16.535-3.755,24.046-11.266,6.9-6.9,11.018-19.033,12.243-36.067a150.511,150.511,0,0,0-.2-23.391l-.118-1.126-1.125-.117a150.571,150.571,0,0,0-23.391-.2c-17.034,1.225-29.169,5.344-36.067,12.243-14.624,14.625-15.007,32.075-1.17,47l-9.076,10,.995.9-.573.573a59.394,59.394,0,0,0,42.272,17.51,59.85,59.85,0,0,0,59.783-59.781A59.85,59.85,0,0,0-1051.226,9.726Zm-32.421,23.8-12.563-12.564a8.925,8.925,0,0,1,5.295-1.723,8.926,8.926,0,0,1,6.357,2.635,8.925,8.925,0,0,1,2.634,6.356A8.924,8.924,0,0,1-1083.647,33.53Zm46.659,66.453c-13.681,13.681-30.06,13.77-43.943.315l8.788-8.788,40.485.761A28.645,28.645,0,0,1-1036.988,99.983Zm11.415-55.043a151.364,151.364,0,0,1-.1,22.089l-25.073,3.087Zm-45.214,41.267.53-37.873a76.732,76.732,0,0,1,18.677-4.1l-3.706,26.474Zm16.832-12.885,28.007-3.448a74.628,74.628,0,0,1-4.484,19.629l-38.972-.732Zm25.626-29.572-23.68,23.68,3.285-23.469A151.309,151.309,0,0,1-1028.329,43.75ZM-1081.7,55.271a29.471,29.471,0,0,1,8.636-5.76l-.553,39.526-9.265,9.266C-1095.467,84.618-1095.083,68.654-1081.7,55.271Z" transform="translate(4235.409 418.022)" fill="#df2a44"/>
    </g>
  </g>
</svg>
