<svg xmlns="http://www.w3.org/2000/svg" width="86.399" height="132.684" viewBox="0 0 86.399 132.684">
  <g id="Raggruppa_4596" data-name="Raggruppa 4596" transform="translate(-1165.319 -460.03)">
    <g id="Icon" transform="translate(1165.319 460.03)">
      <path id="Tracciato_738" data-name="Tracciato 738" d="M-2953.251,54.894c-1.631.335-16.027,3.375-19.545,6.893a9.783,9.783,0,0,0-.587,13.126l-19.173,19.173V51.14a15.473,15.473,0,0,0,14.421-15.412c0-8.18-13.995-29.687-14.591-30.6l-.873-1.335-.873,1.335c-.6.912-14.59,22.419-14.59,30.6a15.472,15.472,0,0,0,14.42,15.412V82.952l-19.536-19.537a10.836,10.836,0,0,0,2.616-7.023,10.682,10.682,0,0,0-3.145-7.656c-3.982-3.983-21.117-7.537-21.844-7.686l-1.549-.318.318,1.549c.149.727,3.7,17.862,7.685,21.845a10.717,10.717,0,0,0,7.608,3.139,10.886,10.886,0,0,0,6.816-2.395l21.031,21.031V109.06h-13.628a5.564,5.564,0,0,0-5.465-4.486c-2.674,0-8.795,3.877-10,4.654l-1.351.875,1.351.876c1.2.777,7.322,4.654,10,4.654a5.564,5.564,0,0,0,5.465-4.487h13.628v13.031a6.2,6.2,0,0,0-5.155,6.1,6.2,6.2,0,0,0,6.2,6.2,6.2,6.2,0,0,0,6.2-6.2,6.2,6.2,0,0,0-5.154-6.1V97.035l20.663-20.663a9.821,9.821,0,0,0,6.111,2.132,9.676,9.676,0,0,0,6.869-2.835c3.517-3.518,6.558-17.914,6.893-19.544l.319-1.55Zm-75.371,7.757c-2.662-2.662-5.532-13.618-6.78-19.221,5.6,1.249,16.559,4.119,19.22,6.781a8.607,8.607,0,0,1,2.534,6.172,8.784,8.784,0,0,1-2.595,6.207A8.764,8.764,0,0,1-3028.622,62.651Zm14.887,50.9c-1.336,0-4.842-1.858-7.461-3.444,2.619-1.584,6.125-3.443,7.461-3.443a3.468,3.468,0,0,1,3.485,3.443A3.468,3.468,0,0,1-3013.735,113.547Zm6.758-77.819c0-6.456,10.279-23.194,13.378-28.093,3.1,4.9,13.379,21.637,13.379,28.093A13.394,13.394,0,0,1-2993.6,49.107,13.394,13.394,0,0,1-3006.977,35.728Zm17.49,94.552a4.116,4.116,0,0,1-4.112,4.112,4.117,4.117,0,0,1-4.113-4.112,4.117,4.117,0,0,1,4.113-4.112A4.117,4.117,0,0,1-2989.487,130.28Zm29.1-56.086a7.7,7.7,0,0,1-10.883-.05,7.705,7.705,0,0,1-.05-10.883c2.331-2.33,11.883-4.852,16.919-5.985C-2955.535,62.312-2958.056,71.862-2960.388,74.194Z" transform="translate(3038.1 -3.794)" fill="#df2a44"/>
    </g>
  </g>
</svg>
