<svg xmlns="http://www.w3.org/2000/svg" width="97.085" height="120.507" viewBox="0 0 97.085 120.507">
  <g id="Raggruppa_4592" data-name="Raggruppa 4592" transform="translate(-1894.112 -466.559)">
    <g id="Icon" transform="translate(0 38.214)">
      <path id="Tracciato_740" data-name="Tracciato 740" d="M-2247.949,34.371a214.472,214.472,0,0,0-23.75-23.337l-.878-.711-.877.711a214.453,214.453,0,0,0-23.751,23.337c-15.868,18.32-23.914,34.6-23.914,48.376,0,30.108,18.146,48.083,48.542,48.083s48.543-17.975,48.543-48.083C-2224.034,68.967-2232.081,52.691-2247.949,34.371Zm-26.02,70.753-39.738-41.191c3.905-8.655,9.747-16.986,15.43-23.948l24.308,32.544Zm2.785-32.512,24.749-32.038c6.274,7.74,12.177,16.465,15.837,25.292l-40.586,39.422Zm22.933-34.242-22.933,29.686V15.124A215.994,215.994,0,0,1-2248.251,38.37Zm-25.718-23.252V67.873l-22.479-30.093c.442-.522.885-1.05,1.321-1.553A216.219,216.219,0,0,1-2273.969,15.118Zm-44.365,67.629a43.842,43.842,0,0,1,3.45-16.023l40.915,42.412v18.882C-2301.776,127.473-2318.334,110.646-2318.334,82.747Zm47.15,45.271V109.169l41.677-40.479a42.036,42.036,0,0,1,2.687,14.057C-2226.82,110.646-2243.377,127.473-2271.184,128.018Z" transform="translate(4215.23 418.022)" fill="#df2a44"/>
    </g>
  </g>
</svg>
