<svg xmlns="http://www.w3.org/2000/svg" width="91.03" height="75.592" viewBox="0 0 91.03 75.592">
  <g id="Raggruppa_4581" data-name="Raggruppa 4581" transform="translate(-4283.714 -489.437)">
    <g id="Icon" transform="translate(4283.714 489.437)">
      <path id="Tracciato_771" data-name="Tracciato 771" d="M71.591,88.785a10,10,0,1,0,10,10A10.016,10.016,0,0,0,71.591,88.785Zm0,17.208a7.2,7.2,0,1,1,7.2-7.2A7.213,7.213,0,0,1,71.591,105.993Z" transform="translate(-25.982 -33.201)" fill="#df2a44"/>
      <path id="Tracciato_772" data-name="Tracciato 772" d="M70.886,70.876a29.271,29.271,0,0,0-20.072,7.5,1.4,1.4,0,0,0,2,1.961,26.779,26.779,0,0,1,18.074-6.656,31.212,31.212,0,0,1,19.121,6.719,1.4,1.4,0,0,0,1.865-2.088A33.465,33.465,0,0,0,70.886,70.876Z" transform="translate(-25.982 -33.201)" fill="#df2a44"/>
      <path id="Tracciato_773" data-name="Tracciato 773" d="M71.588,52.734c-22.633,0-32.692,11.311-33.11,11.792a1.4,1.4,0,0,0,2.115,1.836,28.422,28.422,0,0,1,7.425-5.415c4.613-2.469,12.447-5.413,23.57-5.413,21.266,0,30.774,10.713,30.866,10.819a1.4,1.4,0,0,0,2.127-1.821C104.169,64.05,94.226,52.734,71.588,52.734Z" transform="translate(-25.982 -33.201)" fill="#df2a44"/>
      <path id="Tracciato_774" data-name="Tracciato 774" d="M116.562,48.933C115.867,48.291,99.213,33.2,71.588,33.2S27.14,48.286,26.437,48.928A1.4,1.4,0,0,0,28.325,51C28.49,50.846,45.1,36,71.588,36s42.912,14.84,43.075,14.99a1.4,1.4,0,0,0,1.9-2.058Z" transform="translate(-25.982 -33.201)" fill="#df2a44"/>
    </g>
  </g>
</svg>
