<svg xmlns="http://www.w3.org/2000/svg" width="100.561" height="105.756" viewBox="0 0 100.561 105.756">
  <g id="Raggruppa_4582" data-name="Raggruppa 4582" transform="translate(-4036.928 -469.672)">
    <g id="Icon" transform="translate(4036.928 469.672)">
      <path id="Tracciato_767" data-name="Tracciato 767" d="M-170.524,13.436-220.8,53.295v65.9h100.561v-65.9Zm47.48,102.957H-218V54.649l47.479-37.64,47.48,37.64Z" transform="translate(220.804 -13.436)" fill="#df2a44"/>
      <path id="Tracciato_768" data-name="Tracciato 768" d="M-188.97,67.945c0-4.52,4.946-8.118,5-8.154l-.871-1.221-.869-1.223c-.256.182-6.256,4.519-6.256,10.6,0,5.386,2.835,8.583,5.113,11.151,1.787,2.015,3.2,3.607,3.2,5.786,0,5.724-5,9.716-5.046,9.754L-186.862,97c.253-.2,6.205-4.908,6.205-12.122,0-3.318-2.011-5.585-3.956-7.776C-186.754,74.69-188.97,72.192-188.97,67.945Z" transform="translate(220.804 -13.436)" fill="#df2a44"/>
      <path id="Tracciato_769" data-name="Tracciato 769" d="M-176.18,67.945c0,5.386,2.835,8.583,5.113,11.151,1.787,2.015,3.2,3.607,3.2,5.786,0,5.724-5,9.716-5.046,9.754L-171.072,97c.253-.2,6.205-4.908,6.205-12.122,0-3.318-2.011-5.585-3.956-7.776-2.141-2.416-4.357-4.914-4.357-9.161,0-4.52,4.946-8.118,5-8.154l-.871-1.221-.869-1.223C-170.18,57.529-176.18,61.866-176.18,67.945Z" transform="translate(220.804 -13.436)" fill="#df2a44"/>
      <path id="Tracciato_770" data-name="Tracciato 770" d="M-152.077,84.882c0,5.724-5,9.716-5.046,9.754L-155.281,97c.252-.2,6.2-4.908,6.2-12.122,0-3.318-2.011-5.585-3.955-7.776-2.142-2.416-4.358-4.914-4.358-9.161,0-4.52,4.946-8.118,5-8.154l-.871-1.221-.869-1.223c-.256.182-6.256,4.519-6.256,10.6,0,5.386,2.835,8.583,5.113,11.151C-153.489,81.111-152.077,82.7-152.077,84.882Z" transform="translate(220.804 -13.436)" fill="#df2a44"/>
    </g>
  </g>
</svg>
