<svg xmlns="http://www.w3.org/2000/svg" width="111.097" height="119.674" viewBox="0 0 111.097 119.674">
  <g id="Raggruppa_4588" data-name="Raggruppa 4588" transform="translate(-2714.231 -465.883)">
    <g id="Icon" transform="translate(2714.231 465.883)">
      <path id="Tracciato_757" data-name="Tracciato 757" d="M-1482.375,58.566c12.158,0,19.711-7.5,19.711-19.579,0-13.163-18.152-28.073-18.926-28.7l-.785-.639-.786.639c-.773.628-18.927,15.538-18.927,28.7C-1502.088,51.064-1494.534,58.566-1482.375,58.566Zm-1.246-12.724-14.21-14.023a41.888,41.888,0,0,1,5.41-8.531l8.8,11.145Zm2.491-11.777,8.805-10.775a40.718,40.718,0,0,1,5.632,9.053l-14.437,13.342Zm0,21.963V49.077l15.353-14.189a14.91,14.91,0,0,1,.622,4.1C-1465.155,49.264-1471.106,55.546-1481.13,56.028Zm7.187-34.695-7.187,8.8V13.989A84.728,84.728,0,0,1-1473.943,21.333Zm-9.678-7.343V30.413l-7.176-9.089A84.786,84.786,0,0,1-1483.621,13.99Zm-15.187,20.365,15.187,14.986v6.687c-10.024-.482-15.976-6.764-15.976-17.041A15.364,15.364,0,0,1-1498.808,34.355Z" transform="translate(1514.382 -9.647)" fill="#df2a44"/>
      <path id="Tracciato_758" data-name="Tracciato 758" d="M-1406.959,52.551a12.607,12.607,0,0,0,0-17.792,12.481,12.481,0,0,0-8.889-3.685,12.479,12.479,0,0,0-8.888,3.685c-4.062,4.067-28,32.9-32.183,37.946h-57.463V74.1a55.255,55.255,0,0,0,55.164,55.221A55.256,55.256,0,0,0-1404.053,74.1V72.705h-27.907C-1425.046,67.374-1410.351,55.948-1406.959,52.551Zm-15.8-15.82a9.71,9.71,0,0,1,6.914-2.868,9.713,9.713,0,0,1,6.915,2.868,9.813,9.813,0,0,1,0,13.849c-3.834,3.838-23.6,19.054-27.6,22.125h-16.756C-1446.689,64.754-1426.346,40.319-1422.762,36.731Zm-36.456,89.8A52.463,52.463,0,0,1-1511.574,75.5h104.712A52.462,52.462,0,0,1-1459.218,126.531Z" transform="translate(1514.382 -9.647)" fill="#df2a44"/>
    </g>
  </g>
</svg>
