<svg xmlns="http://www.w3.org/2000/svg" width="74.723" height="122.956" viewBox="0 0 74.723 122.956">
  <g id="Raggruppa_4595" data-name="Raggruppa 4595" transform="translate(-1352.299 -465.083)">
    <g id="Icon" transform="translate(1352.298 465.083)">
      <path id="Tracciato_752" data-name="Tracciato 752" d="M-2801.365,101.541l.359-.555c.884-1.362,21.638-33.574,21.638-51.714,0-23.424-15.713-40.425-37.362-40.425s-37.361,17-37.361,40.425c0,21.817,21.985,50.582,22.92,51.8l.365.474Zm-50.293-52.269c0-22.014,14.689-37.992,34.928-37.992s34.929,15.978,34.929,37.992c0,16.167-18.116,45.444-20.893,49.836H-2829.6C-2832.476,95.253-2851.658,68.793-2851.658,49.272Z" transform="translate(2854.091 -8.847)" fill="#df2a44"/>
      <rect id="Rettangolo_398" data-name="Rettangolo 398" width="30.223" height="2.433" transform="translate(23.067 98.592)" fill="#df2a44"/>
      <rect id="Rettangolo_399" data-name="Rettangolo 399" width="30.223" height="2.433" transform="translate(23.067 105.902)" fill="#df2a44"/>
      <rect id="Rettangolo_400" data-name="Rettangolo 400" width="30.223" height="2.433" transform="translate(23.067 113.212)" fill="#df2a44"/>
      <rect id="Rettangolo_401" data-name="Rettangolo 401" width="17.93" height="2.433" transform="translate(29.214 120.523)" fill="#df2a44"/>
    </g>
  </g>
</svg>
