<svg xmlns="http://www.w3.org/2000/svg" width="119.583" height="119.605" viewBox="0 0 119.583 119.605">
  <g id="Raggruppa_4585" data-name="Raggruppa 4585" transform="translate(-3328.147 -465.92)">
    <g id="Icon" transform="translate(3328.147 465.92)">
      <path id="Tracciato_761" data-name="Tracciato 761" d="M-850.729,9.684a59.865,59.865,0,0,0-59.791,59.8,59.864,59.864,0,0,0,59.791,59.8,59.865,59.865,0,0,0,59.792-59.8A59.866,59.866,0,0,0-850.729,9.684Zm0,116.762a57.009,57.009,0,0,1-56.912-55.538h30.117v40.919h37.033a6.151,6.151,0,0,0,6.084,5.325A6.153,6.153,0,0,0-828.261,111a6.153,6.153,0,0,0-6.146-6.145,6.151,6.151,0,0,0-5.8,4.124H-874.68V31.369H-840.2a6.15,6.15,0,0,0,5.8,4.125,6.153,6.153,0,0,0,6.146-6.146,6.153,6.153,0,0,0-6.146-6.147,6.151,6.151,0,0,0-6.084,5.325h-37.033V68.065h-30.117a57.009,57.009,0,0,1,56.912-55.538,57.018,57.018,0,0,1,56.948,56.96A57.018,57.018,0,0,1-850.729,126.446ZM-837.709,111a3.306,3.306,0,0,1,3.3-3.3,3.306,3.306,0,0,1,3.3,3.3,3.307,3.307,0,0,1-3.3,3.305A3.307,3.307,0,0,1-837.709,111Zm0-81.657a3.306,3.306,0,0,1,3.3-3.3,3.306,3.306,0,0,1,3.3,3.3,3.306,3.306,0,0,1-3.3,3.3A3.306,3.306,0,0,1-837.709,29.348Z" transform="translate(910.52 -9.684)" fill="#df2a44"/>
      <path id="Tracciato_762" data-name="Tracciato 762" d="M-825.3,56.47a20.661,20.661,0,0,0-5.855,1.178c-.412.126-.808.244-1.192.354a18.086,18.086,0,0,1,.991-3.578,12.594,12.594,0,0,1,2.647-4.3l-1.933-2.084a15.146,15.146,0,0,0-3.366,5.359,20.362,20.362,0,0,0-1.252,4.9c-.687-.137-1.517-.385-2.392-.652a20.669,20.669,0,0,0-5.854-1.178c-6.915,0-11.562,5.68-11.562,14.135,0,7.416,7.414,20.19,15,20.19a9.361,9.361,0,0,0,3.338-.7,6.608,6.608,0,0,1,2.325-.525,6.6,6.6,0,0,1,2.325.525,9.346,9.346,0,0,0,3.338.7c7.588,0,15-12.774,15-20.19C-813.742,62.15-818.388,56.47-825.3,56.47Zm-3.44,31.482a6.738,6.738,0,0,1-2.382-.534,9.223,9.223,0,0,0-3.281-.691,9.213,9.213,0,0,0-3.281.691,6.739,6.739,0,0,1-2.382.534c-5.366,0-12.158-10.755-12.158-17.347,0-5.209,2.283-11.292,8.718-11.292a18.606,18.606,0,0,1,5.025,1.055,15.33,15.33,0,0,0,4.078.884,15.288,15.288,0,0,0,4.078-.885,18.617,18.617,0,0,1,5.025-1.054c6.435,0,8.718,6.083,8.718,11.292C-816.586,77.2-823.378,87.952-828.744,87.952Z" transform="translate(910.52 -9.684)" fill="#df2a44"/>
      <path id="Tracciato_763" data-name="Tracciato 763" d="M-836.739,56c.284,0,.462-.01.5-.011l1.253-.079.078-1.252c.014-.22.3-5.425-2.866-8.587s-8.366-2.878-8.585-2.864l-1.252.078-.079,1.252c-.014.22-.3,5.423,2.864,8.586C-842.2,55.754-838.15,56-836.739,56Zm-3.046-7.919a8.29,8.29,0,0,1,1.994,5.026,8.282,8.282,0,0,1-5.026-1.994,8.284,8.284,0,0,1-1.993-5.024A8.281,8.281,0,0,1-839.785,48.079Z" transform="translate(910.52 -9.684)" fill="#df2a44"/>
    </g>
  </g>
</svg>
