<svg xmlns="http://www.w3.org/2000/svg" width="122.739" height="117.069" viewBox="0 0 122.739 117.069">
  <g id="Raggruppa_4594" data-name="Raggruppa 4594" transform="translate(-1518.501 -467.36)">
    <g id="Icon" transform="translate(1518.501 467.36)">
      <path id="Tracciato_743" data-name="Tracciato 743" d="M-2609.292,28.982h-41.181V57.19h41.181Zm-2.049,26.159h-37.083V31.031h37.083Z" transform="translate(2690.774 -11.124)" fill="#df2a44"/>
      <path id="Tracciato_744" data-name="Tracciato 744" d="M-2634.779,24.255a18.607,18.607,0,0,0,6.2.944c4.395,0,9.528-1.191,9.528-4.547a9.538,9.538,0,0,0-9.528-9.528,9.539,9.539,0,0,0-9.529,9.528C-2638.107,21.736-2637.53,23.242-2634.779,24.255Zm6.2-11.082a7.487,7.487,0,0,1,7.479,7.479c0,1.206-3,2.5-7.479,2.5s-7.48-1.292-7.48-2.5A7.488,7.488,0,0,1-2628.578,13.173Z" transform="translate(2690.774 -11.124)" fill="#df2a44"/>
      <path id="Tracciato_745" data-name="Tracciato 745" d="M-2598.264,75.489l-20.59,35.665,24.428,14.1,20.592-35.664Zm3.088,46.969-20.879-12.054,18.542-32.115,20.879,12.054Z" transform="translate(2690.774 -11.124)" fill="#df2a44"/>
      <path id="Tracciato_746" data-name="Tracciato 746" d="M-2568.363,110.253a9.471,9.471,0,0,0-4.44-5.786c-2.905-1.678-6.5,2.173-8.7,5.979a18.6,18.6,0,0,0-2.283,5.842c-.5,2.888.517,4.142,1.456,4.684a9.471,9.471,0,0,0,4.748,1.275,9.537,9.537,0,0,0,8.268-4.763A9.473,9.473,0,0,0-2568.363,110.253Zm-2.727,6.207a7.485,7.485,0,0,1-10.216,2.737c-1.045-.6-.661-3.852,1.577-7.727a16.783,16.783,0,0,1,3.453-4.347c.49-.407,1.707-1.311,2.449-.881a7.431,7.431,0,0,1,3.485,4.542A7.431,7.431,0,0,1-2571.09,116.46Z" transform="translate(2690.774 -11.124)" fill="#df2a44"/>
      <path id="Tracciato_747" data-name="Tracciato 747" d="M-2659.246,75.489l-24.431,14.105,20.592,35.664,24.429-14.1Zm-21.631,14.855L-2660,78.289l18.541,32.115-20.88,12.055Z" transform="translate(2690.774 -11.124)" fill="#df2a44"/>
      <path id="Tracciato_748" data-name="Tracciato 748" d="M-2686.011,102.209a9.541,9.541,0,0,0-3.488,13.017,9.471,9.471,0,0,0,5.786,4.44,9.549,9.549,0,0,0,2.483.329,9.47,9.47,0,0,0,4.747-1.28c2.908-1.68,1.372-6.722-.827-10.53S-2683.107,100.534-2686.011,102.209Zm8.5,14.731a7.425,7.425,0,0,1-5.675.746,7.434,7.434,0,0,1-4.542-3.484,7.489,7.489,0,0,1,2.738-10.218.866.866,0,0,1,.439-.108c1.227,0,3.494,1.924,5.463,5.335C-2676.846,113.086-2676.462,116.337-2677.507,116.94Z" transform="translate(2690.774 -11.124)" fill="#df2a44"/>
      <path id="Tracciato_749" data-name="Tracciato 749" d="M-2654.08,43.817l-1.16-1.688a46.971,46.971,0,0,0-20.331,34.909l2.042.172A44.937,44.937,0,0,1-2654.08,43.817Z" transform="translate(2690.774 -11.124)" fill="#df2a44"/>
      <path id="Tracciato_750" data-name="Tracciato 750" d="M-2583.613,77.38l2.042-.164a46.981,46.981,0,0,0-20.157-34.958l-1.168,1.684A44.94,44.94,0,0,1-2583.613,77.38Z" transform="translate(2690.774 -11.124)" fill="#df2a44"/>
      <path id="Tracciato_751" data-name="Tracciato 751" d="M-2628.579,126.144a44.67,44.67,0,0,1-19.754-4.544l-.9,1.841a46.693,46.693,0,0,0,20.652,4.752,46.757,46.757,0,0,0,19.936-4.408l-.867-1.857A44.726,44.726,0,0,1-2628.579,126.144Z" transform="translate(2690.774 -11.124)" fill="#df2a44"/>
    </g>
  </g>
</svg>
