<svg xmlns="http://www.w3.org/2000/svg" width="94.899" height="108.308" viewBox="0 0 94.899 108.308">
  <g id="Raggruppa_4593" data-name="Raggruppa 4593" transform="translate(-1716.138 -469.201)">
    <g id="Icon" transform="translate(0 38.214)">
      <g id="Raggruppa_1040" data-name="Raggruppa 1040" transform="translate(1732.672 430.987)">
        <rect id="Rettangolo_395" data-name="Rettangolo 395" width="23.371" height="2.632" transform="translate(0 18.805) rotate(-53.578)" fill="#df2a44"/>
      </g>
      <g id="Raggruppa_1041" data-name="Raggruppa 1041" transform="translate(1746.942 430.987)">
        <rect id="Rettangolo_396" data-name="Rettangolo 396" width="23.37" height="2.632" transform="translate(0 18.805) rotate(-53.578)" fill="#df2a44"/>
      </g>
      <g id="Raggruppa_1042" data-name="Raggruppa 1042" transform="translate(1761.214 430.987)">
        <rect id="Rettangolo_397" data-name="Rettangolo 397" width="23.37" height="2.632" transform="translate(0 18.805) rotate(-53.578)" fill="#df2a44"/>
      </g>
      <g id="Raggruppa_1043" data-name="Raggruppa 1043" transform="translate(1716.138 459.128)">
        <path id="Tracciato_741" data-name="Tracciato 741" d="M-2426.611,121.273h-69.462V41.106h69.462Zm-66.83-2.632h64.2v-74.9h-64.2Z" transform="translate(2496.073 -41.106)" fill="#df2a44"/>
      </g>
      <g id="Raggruppa_1044" data-name="Raggruppa 1044" transform="translate(1783.783 468.292)">
        <path id="Tracciato_742" data-name="Tracciato 742" d="M-2413.879,95.774h-3.565c-9.369,0-11.844-7.748-11.844-11.845V62.115c0-9.369,7.747-11.845,11.844-11.845h3.565c9.369,0,11.845,7.748,11.845,11.845V83.929C-2402.034,93.3-2409.781,95.774-2413.879,95.774Zm-3.563-42.872c-.407,0-9.214.171-9.214,9.213V83.929c0,.373.154,9.213,9.212,9.213h3.565c.373,0,9.213-.155,9.213-9.213V62.115c0-.373-.155-9.213-9.213-9.213Z" transform="translate(2429.288 -50.27)" fill="#df2a44"/>
      </g>
    </g>
  </g>
</svg>
