<svg xmlns="http://www.w3.org/2000/svg" width="122.404" height="122.404" viewBox="0 0 122.404 122.404">
  <g id="Raggruppa_4584" data-name="Raggruppa 4584" transform="translate(-3532.568 -464.521)">
    <g id="Icon" transform="translate(3532.569 464.521)">
      <path id="Tracciato_764" data-name="Tracciato 764" d="M-589.852,69.6a58.49,58.49,0,0,1-58.4,58.287,58.468,58.468,0,0,1-58.4-58.4,58.468,58.468,0,0,1,58.4-58.4,58.22,58.22,0,0,1,43.947,19.97h-16.256v2.8h21.116V12.74h-2.8V29.158A61.013,61.013,0,0,0-648.253,8.285a61.271,61.271,0,0,0-61.2,61.2,61.272,61.272,0,0,0,61.2,61.2,61.3,61.3,0,0,0,61.2-61.082Z" transform="translate(709.455 -8.285)" fill="#df2a44"/>
      <path id="Tracciato_765" data-name="Tracciato 765" d="M-651,32.184V72.459l33-.113-.01-2.8-30.194.1V32.184Z" transform="translate(709.455 -8.285)" fill="#df2a44"/>
    </g>
  </g>
</svg>
