<svg xmlns="http://www.w3.org/2000/svg" width="119.951" height="119.388" viewBox="0 0 119.951 119.388">
  <g id="Raggruppa_4587" data-name="Raggruppa 4587" transform="translate(-2918.479 -466.119)">
    <g id="Icon" transform="translate(0 38.214)">
      <path id="Tracciato_759" data-name="Tracciato 759" d="M-1193.583,49.6V9.883h-39.723v17.1l-46.9,14.1-11.074-21.111-22.25,44.639h27.665l17.26,32.468a19.349,19.349,0,0,0-4.653,12.58,19.781,19.781,0,0,0,19.9,19.615,19.781,19.781,0,0,0,19.9-19.615,19.35,19.35,0,0,0-4.867-12.812l26.237-47.239Zm-36.938-36.938h34.153V46.821h-34.153Zm-60.7,13.417,18.746,35.74h-36.562Zm37.858,100.4a16.993,16.993,0,0,1-17.115-16.831,16.993,16.993,0,0,1,17.115-16.829,16.993,16.993,0,0,1,17.114,16.829A16.993,16.993,0,0,1-1253.362,126.487Zm12.973-31.67a19.964,19.964,0,0,0-12.973-4.774,19.963,19.963,0,0,0-13.191,4.968l-16.162-30.4h14.846l-11.024-21.016,45.587-13.707V49.6h18.028Z" transform="translate(4232.014 418.022)" fill="#df2a44"/>
    </g>
  </g>
</svg>
