<svg id="Component_20_1" data-name="Component 20 – 1" xmlns="http://www.w3.org/2000/svg" width="77.5" height="72.121" viewBox="0 0 77.5 72.121">
  <path id="Path_754" data-name="Path 754" d="M-1811.53,97.386h-29.647l7.691-6.042-1.044-1.328-10.41,8.179,10.407,8.249,1.05-1.323-7.628-6.046h29.581Z" transform="translate(1887.849 -41.593)" fill="#fff"/>
  <g id="Group_4578" data-name="Group 4578" transform="translate(1916.087 -9.726)">
    <path id="Path_753" data-name="Path 753" d="M-1850.424,69.253l-1.489.763,5.21,10.158h-66.708l20.59-42.257,7.061,8.069,6.782-10.1,7.458,6.474,3.46-3.837,4.783,9.328.121.236,1.489-.762-19.279-37.6-35.14,72.121h72.121Zm-30.484-55.786,12.034,23.47L-1871.66,40l-7.656-6.645-6.622,9.862-6.081-6.95Z" fill="#fff"/>
    <path id="Path_755" data-name="Path 755" d="M-1821.027,65.233l7.628,6.046h-29.581v1.689h29.647l-7.691,6.042,1.044,1.328,10.41-8.179-10.408-8.249Z" transform="translate(-29.016 -21.505)" fill="#fff"/>
  </g>
</svg>
