<svg xmlns="http://www.w3.org/2000/svg" width="1090" height="677.87" viewBox="0 0 1090 677.87">
  <g id="Raggruppa_4579" data-name="Raggruppa 4579" transform="translate(-445 -2424.778)">
    <g id="Raggruppa_1063" data-name="Raggruppa 1063" transform="translate(445 2424.778)">
      <g id="Raggruppa_4578" data-name="Raggruppa 4578">
        <path id="Tracciato_776" data-name="Tracciato 776" d="M30.134,384.92c11.083.706,13.58-1.188,16.165-11.672,6.164,3.843,12.163,7.575,18.146,11.329.492.31,1.238.75,1.274,1.179.761,9.4,5.424,5.845,10.043,3.161,2.14-1.243,5.05-1.667,6.824-.139,4.663,4.015,11.381,4.324,15.55,8.973,1.8,2,3.056,1.872,5.479.494,4.94-2.811,11.028-5.512,15.816-5.927,6.182-.535,13.2-1.628,19.382,0,6.1,1.6,12.445.538,18.492,3.326,5.07,2.338,9.688-2.487,12.813-6.752,3.161-4.311,6.3-8.5,6.878-13.573,1.152-10.1,11.494-9.915,16.63-15.553,2.27-2.493,2.671-3.5,1.3-6.133-4.676-8.968-5.3-17.714.725-26.636,2.1-3.1,1.4-7.961,4.146-10.841,5.559-5.831,5.584-11.72,2.532-18.81-1.169-2.716.284-6.581.633-9.914.174-1.674.742-3.442,2.92-2.546,5.584,2.3,4.985-1.7,4.592-4.673-.811-6.128,1.383-8.867,7.641-7.626,3.224.639,6.9-1.666,9.791,1.8.711.853,1.841-1.025,2.74-1.684,6.131-4.49,11.165-9.561,9.628-18.135-.948-5.285,1.08-7.753,6.621-6.73.191.036.461.086.584-.011,8.633-6.809,19.193-2.92,28.5-5.321,3.9-1,8.842-1.87,11.8-5.757.456-.6,1.307-1.366,1.908-1.312,8.185.734,13.155-8.556,22.737-5.926-4.045-5.518-2.059-6.435,2.476-6.115,4.336.306,8.712.033,13.068.092,1.151.015,3.02-.062,3.336.541,3.884,7.409,4.6.509,5.461-1.412,1.594-3.542,2.658-4.255,5.508-.938,3.455,4.021,6.549,8.32,10.579,11.955,3.26,2.941,7.042,4.608,10.662,6.6,4.761,2.616,16.952-3.24,18.276-8.632,1.217-4.949,3.411-8.816,8.425-10.561a3.334,3.334,0,0,0,2.355-2.968c1.4-7.246,5.587-9.77,12.988-10.746,9.973-1.314,16.615,3.322,22.721,10.021,2.065,2.266,4.249,6.225,7.144,5.323,5.083-1.583,10.8-2.122,14.936-6.29,5.753-5.8,13.12-9.043,20.705-11.358,4.917-1.5,9.235.6,13.376,4.275,6.382,5.665,13.463,10.715,23.111,7.572,9.832-3.2,18.963,2.691,23.178,10.185,1.457,2.589,2.941,4.8,6.1,5.971,4.689,1.736,10.745.133,12.633-4.688,1.717-4.388,5.261-7.859,6-12.693.316-2.075,2.035-1.512,3.313-1.239,5.562,1.186,11.179.85,16.734.318,3.579-.344,7.818,1.014,9.972-4.2,1.006-2.437,5.374-1.174,7.815-3.394,5.85-5.323,10.909-12.113,20.194-12.008,1.232.013,2.677-2.208,3.707-3.625,5.068-6.964,11.591-10.7,20.29-12.424,4-.794,7.28-5.87,12.636-4.949,3.927-9.781,12.4-3.5,18.611-5.211a7.877,7.877,0,0,1,2.959-.018c5.39.665,9.82-.259,13.171-5.327,3.523-5.326,8.932-6.075,14.754-3.9,2.264.846,3.411.656,5.178-1.7,3.163-4.214,7.3-7.754,11.315-11.258,2.691-2.351,6.112-1.49,8.978-.269,3.169,1.35,6.42,0,7.027-1.959,1.451-4.673,3.665-2.746,6.143-1.721,3.63,1.5,6.674.92,9.777-1.77,10.149-8.8,29.109-7.915,38.7,1.463,2.27,2.219,3.682,5.46,8.018,5.24,2.213-.113,2.738,9.029.664,11.789-.351.469-.752,1.1-1.246,1.231-8.559,2.363-8.445,10.384-10.206,16.657-1.116,3.975-3.776,7.438-3.789,11.724,0,1.716-1,2.31-2.651,2.439-11.331.893-21.809,5.753-33.016,7.18-5.153.656-5.671,3.376-4.048,7.463,3.193,8.046,6.207,16.124,5.142,25.041-.244,2.034.712,3.162,2.519,4.152,3.018,1.653,3.453-1.7,5.391-2.48,3.75,5.552,6.2,11.8,10.065,17.322,2.42,3.463,2.979,8.893-2.534,11.622-3.883,1.921-.443,7.115-4.731,9.211,7.428-4.028,13.413,1.631,20.024,2.1,3.784.266,4.319,6.094,6.2,9.464.6,1.076-.167,2.857.315,4.069.9,2.264,1.911,5.794,3.507,6.177,2.57.616,4.6-1.912,6.145-4.522,3.047-5.146,8.533-6,13.942-3.027,1.255.691,3.061.389,4.616.529,6.5.584,10.237,3.538,11.4,10.021.535,2.989,1.709,4.268,4.515,4.108,3.445-.2,4.5,1.44,4.234,4.654-.209,2.555-.045,5.139-.035,7.71.015,3.563,1.179,6.3,5.279,6.376,3.3.058,2.986,1.849,2.842,4.31-.447,7.646-2.955,14.132-9.163,18.971-.942.734-2.789,2.006-1.1,3.29,6.045,4.585,4.068,9.76.579,15.421,4.208.288,7.51.661,10.816.7,3.819.046,7.467.471,10.759,2.61,3.814,2.477,8.1,2.94,12.466,2.458,3.772-.416,4.887,1.139,4.591,4.7-.742,8.943,3.766,16.79,6.209,24.938,1.29,4.306,6.251,7.536,5.1,13.183-.1.507.694,1.54,1.3,1.79,7.83,3.255,14.552,8.243,21.143,13.417,6.061,4.759,13.84,3.559,20.559,6.056,2.324.863,6.258.271,6.757,2.6.888,4.132.252,8.6.092,12.924-.014.379-1.263,1.07-1.885,1.016-7.324-.639-12.512,4.412-18.527,7.075-5.235,2.319-7.572,8.189-9.978,12.678-3.4,6.337-7.38,8.819-14.248,7.693,3.821,8.669,1.435,13.115-7.161,16.55-8.281,3.31-15.134,1.544-21.865-3.6-2.878-2.2-6.137-2.832-6.479,2.383-.176,2.685-1.557,3.345-3.793,3.4a33.239,33.239,0,0,0-13.165,2.613c-4.641,2.087-8.526-1.515-11.943-3.649-4.8-3-6.694-.245-8.886,2.816-.75,1.05-.524,2.833-2.3,3.111-7.924,1.249-13.316,6.308-18.517,11.864a6.318,6.318,0,0,1-7.647,1.466,6.848,6.848,0,0,1-4.312-7.1c.279-4.554-3.084-7.113-4.907-10.583-4.8-9.135-12.332-8.188-20.149-8.009-1.333.03-3.223.369-3.618-1.265-1.685-6.968-8.256-8-13.1-11.167-4.1-2.681-6.606-7.6-12.454-8.5-1.118,1.755-.654,3.756-.167,5.832,1.911,8.144-.258,15.8-2.934,23.38a8.827,8.827,0,0,1-3.7,4.29c-3.141,2.225-4.679,5.128-3.221,9.473,2.219,6.61,1.358,13.067-4.084,17.975a11.1,11.1,0,0,0-3.376,6.609c-1.374,6.828-5.776,12.036-9.75,17.29a12.947,12.947,0,0,0-2.955,9.747c.322,3.109-.944,4.315-4.053,4.06a37.393,37.393,0,0,0-7.123.012c-3.8.42-5.992-.453-5.692-4.893.221-3.275-1.641-3.927-4.62-2.959-4.794,1.559-8.942,3.45-8.049,9.672.357,2.487-.706,3.7-3.317,3.527-5.3-.358-10.759,1-15.895-.988a6.256,6.256,0,0,0-6.537,1.39c-5.822,5.165-12.829,6.49-20.131,7.307-2.847.32-5.141,1.946-7.406,3.537a26.637,26.637,0,0,1-15.421,5.094c-3.84.058-5.64-.5-4.981-4.586a3.562,3.562,0,0,0,0-1.183c-.514-2.794,1.607-7.324-1.283-8.093-4.272-1.139-4.346,4.484-4.8,6.662-1.576,7.507-8.03,7.724-12.927,9.115-8.74,2.483-17.826,4.711-26.878.227-2.79-1.382-5.2-.542-7.805,1.9-3.856,3.617-9.263,4.9-14.318,6.37-2.229.649-4.6.783-6.884,2.159.685,2.407,3.367,2.644,4.493,4.365a1.74,1.74,0,0,1-1.345,1.691c-3.958,1.4-7.121,2.991-8.1,8.066-.5,2.591-1.289,7.367-6.282,7.112.816,5.606-6.554,7.463-5.927,13.048a49.44,49.44,0,0,1-6.724,31.743,12.022,12.022,0,0,0-1.613,6.2c-.15,8.052-1.817,10.336-9.263,12.731-2.963.953-8.392,1.23-8.6,2.5-.805,4.831-3.363,9.222-3.276,14.257.15,8.716-5.46,14.594-12.938,14.2-2.344-.124-3.912-.673-3.9-3.24a4.29,4.29,0,0,0-3.952-4.478c-5.19-.544-9.646-3.262-14.671-4.3-3.938-.811-6.1-.618-5.776,4.12.13,1.865.352,3.859-3.095,3.272-9.622-1.64-10.065-1.588-13.087,7.84-1.343,4.191-2.526,6.281-7.294,7.357-4.234.956-7.589,5.166-12.2,6.382-1.513.4-3,1.238-4.5,1.253-4.2.043-5.55,2.457-5.53,6.09a6.54,6.54,0,0,1-2.434,5.684c-5,4.069-5.64,10.623-.988,14.925,4.806,4.447,4.11,9.76,2.656,14.721-1.4,4.781-8.43,7.614-14.137,5.989A36.407,36.407,0,0,0,356,778.1c-3.167.131-4.742-1.261-3.929-4.141,1.734-6.146-3.129-7.4-6.649-9.815-1.123-.769-1.964-.516-2.412.416-1.987,4.135-7.586,6.963-4.539,12.962,1.3,2.556-.633,3.3-2.609,2.842-9.542-2.211-14.454,3.746-19.545,10.23-7.836,9.984-18.285,16.656-29.868,21.593-2.706,1.154-5.445.285-8.106-.624a60.426,60.426,0,0,0-7.32-2.286c-5.151-1.055-11.67-7.508-12.527-12.66-.532-3.2.824-5.685,2.64-8.183s2.518-4.92-1.722-6.021c-4.491-1.167-7.168-4.762-9.876-8.161-2.742-3.439-3.693-7.892-7.9-10.7-2.952-1.968-1.795-6.78-.98-10.091.635-2.582,3.769-1.058,5.773-1.267,3.084-.32,14.045-8.722,14.283-11.839.419-5.485,4.212-10.286,2.933-16.086-.61-2.767,1.57-3.177,3.634-3.435,2.17-.272,2.872-1.931,3.331-3.693.634-2.433-1.629-1.638-2.625-2.116-1.62-.78-1.551-2.137-1.557-3.507-.019-4.549,0-9.1-.008-13.646a4.243,4.243,0,0,1,1.635-3.539,10.154,10.154,0,0,0,3.584-8.356,13.6,13.6,0,0,1,3.857-10.8c1.83-1.916,1.9-3.79.021-5.7-5.39-5.469-3.28-12.6-4.231-19.056a.665.665,0,0,1,.165-.551c6.384-3.808,5.092-8.961,2.6-14.378a2.281,2.281,0,0,1,.159-1.738c6.158-11.9-3.262-20.406-6.608-30.219-.622-1.823-1.332-1.521-3.53-1.152-6.34,1.061-9.331,5.521-13.616,9.192-5.81,4.976-14.141,5.247-21.414,7.421-1.905.57-1.64-1.8-1.705-3.03-.329-6.127-2.475-9.784-9.618-9.959-6.012-.147-9.368-5.019-9.958-12.044-.238-2.839.616-5.992-2.563-8.29-2.47,2.568-3.36,6.364-6.38,8.446,3.538,2.637,2.078,6.96,3.4,10.405,5.107,13.314,9.512,26.9,14.182,40.376.906,2.616-.447,3.3-2.645,2.844-5.1-1.048-10.84,1.206-15.343-3.023a2.988,2.988,0,0,0-2.28-.356c-9.376,1.849-13.314-4.881-17.364-11.15-.811-1.255-1.393-2.2-2.844-2.552-3.94-.962-6.385-3.787-8.5-6.971a14.942,14.942,0,0,0-5.842-4.8c-4.622-2.469-7.588-1.306-9.173,3.431a11.331,11.331,0,0,1-8.84,7.923c-3.243.67-4.256,2.288-5.152,5.245-3.125,10.321-15.679,16.607-25.579,12.643-3.913-1.566-6.26-.68-8.679,2.2-4.105,4.881-8.673,4.7-14.832,3.211-8.426-2.035-17.057-4.668-26.023-3.646-3.891.444-4.988-.773-6.363-4.994-2.093-6.426-4.878-13.039-9.351-18.533-.986-1.211-2.38-2.423-2.657-3.818-1.056-5.326-5.47-3.06-6.517-1.76-3.958,4.906-10.725,7.167-12.775,13.879a5.268,5.268,0,0,1-5.1,3.573c-5.127-.287-8.518,2.15-11.289,6.04-1.791,2.514-4.347,3.064-7.314,2.938-6.929-.294-13.856-.545-19.667,4.44a4.33,4.33,0,0,1-5.088.279c-7.616-4.925-17.436-7.258-20.726-17.36a5.124,5.124,0,0,0-3.907-3.325c-7.56-1.883-13.965-5.421-18.3-12.161a3.515,3.515,0,0,0-2.4-1.434c-8.587-.4-16.671-4.137-25.566-3.073-9.445,1.131-21.225-7.019-24.109-16.15-1.256-3.981-3.774-7.219-4.077-11.963-.436-6.8,2.612-10.884,7.28-13.878,4.742-3.042,4.852-7.165,4.528-11.57-.225-3.056-.36-5.915,1.377-8.549,6.454-9.785,3.178-20.711,2.713-30.951-.316-6.976-13.636-13.027-21.291-11.862-3.119.475-6.338.46-9.3,1.627-2.988,1.177-5.833.749-7.327-1.848-3.992-6.942-11.714-12.082-9.923-21.92.9-4.931-1.047-9.821-4.65-13.5-2.109-2.154-2.433-3.48-.09-5.684,3.951-3.716,8.652-7.039,9.094-13.231.038-.528.922-1.13.8-1.514-1.011-3.33,10.939-1.527,2.971-7.493,1.456-4.883-1.619-7.841-4.817-10.455-4.142-3.383-3.3-5.233,1.338-6.872a22.78,22.78,0,0,0,12.372-9.625,8.859,8.859,0,0,1,2.427-2.551c2.144-1.5,5.687-.906,5.421-5.578-.264-4.63-1.759-8.282-5.392-10.507-3.01-1.845-4.446-4.317-5.553-7.3-1.032-2.785-2.945-4.366,1.6-7.509a69.485,69.485,0,0,1,10.675-6.011c4.157-1.94,5.736-8.056,5.469-12.339-.492-7.936,3.123-14.306,5.43-21.232.308-.923.49-1.892.835-2.8.987-2.589-2.367-7.018,2.6-7.761,4.752-.71,9.417-2.5,13.953,2.765,5.543,6.429,13.878,5.651,21.481,3.732,5.572-1.407,10.662-2.392,16.385.065a5.7,5.7,0,0,0,7.639-4.185c.586-2.884,2.043-3.552,4.509-3.263a13.192,13.192,0,0,0,9-2.262c2.918-1.934,6.316-1.971,9.4-2.967,4.567-1.473,9.982-1.014,13.584-5.587,2.313-2.936,6.16-2.753,9.244-.811a20.556,20.556,0,0,0,7.016,3c6.244,1.213,11.607,2.965,9.65,11.193-.163.689.117,2.109.451,2.2,8.622,2.252,13.237,12.487,23.572,11.526,4.892-.454,10.405,5.026,10.554,9.86.172,5.558,1.434,11.271-6.382,13.811C33.233,375.788,34.2,381.709,30.134,384.92Z" transform="translate(160.213 -134.874)" fill="#f06772"/>
      </g>
      <circle id="Ellisse_3" data-name="Ellisse 3" cx="12.133" cy="12.133" r="12.133" transform="translate(398.627 322.991)" fill="#ede7ae"/>
      <g id="Raggruppa_1065" data-name="Raggruppa 1065" transform="translate(784.858 159.197)">
        <ellipse id="Ellisse_5" data-name="Ellisse 5" cx="12.133" cy="11.627" rx="12.133" ry="11.627" transform="translate(0 64.709)" fill="#ede7ae"/>
        <g id="Ellisse_8" data-name="Ellisse 8" transform="translate(12.133 0)" fill="none" stroke="#ede7ae" stroke-width="1">
          <circle cx="12.133" cy="12.133" r="12.133" stroke="none"/>
          <circle cx="12.133" cy="12.133" r="11.633" fill="none"/>
        </g>
        <path id="Tracciato_778" data-name="Tracciato 778" d="M6.228-1.233,0,40.669" transform="translate(15.243 24.304)" fill="none" stroke="#ede7ae" stroke-width="1"/>
      </g>
      <g id="Raggruppa_1066" data-name="Raggruppa 1066" transform="translate(433.003 325.013)">
        <text id="Meran" transform="translate(0 39)" fill="#fff" font-size="22" font-family="Montserrat-SemiBold, Montserrat" font-weight="600" letter-spacing="0.02em"><tspan x="0" y="0">Meran</tspan></text>
        <text id="startbase" transform="translate(0 14)" fill="#ede7ae" font-size="14" font-family="Montserrat-SemiBold, Montserrat" font-weight="600"><tspan x="0" y="0">startbase</tspan></text>
      </g>
      <g id="Componente_3_1" data-name="Componente 3 – 1" transform="translate(506.812 457.464)">
        <circle id="Ellisse_4" data-name="Ellisse 4" cx="12.133" cy="12.133" r="12.133" fill="#ede7ae"/>
        <g id="Raggruppa_1067" data-name="Raggruppa 1067" transform="translate(35.388 3.033)">
          <text id="Bozen" transform="translate(0 39)" fill="#fff" font-size="22" font-family="Montserrat-SemiBold, Montserrat" font-weight="600" letter-spacing="0.02em"><tspan x="0" y="0">Bozen</tspan></text>
          <text id="startbase-2" data-name="startbase" transform="translate(0 14)" fill="#ede7ae" font-size="14" font-family="Montserrat-SemiBold, Montserrat" font-weight="600"><tspan x="0" y="0">startbase</tspan></text>
        </g>
        <g id="Ellisse_10" data-name="Ellisse 10" transform="translate(5.5 5.5)" fill="none" stroke="#ede7ae" stroke-width="1">
          <circle cx="6.633" cy="6.633" r="6.633" stroke="none"/>
          <circle cx="6.633" cy="6.633" r="6.133" fill="none"/>
        </g>
      </g>
      <g id="Raggruppa_1068" data-name="Raggruppa 1068" transform="translate(821.256 225.928)">
        <text id="Bruneck" transform="translate(0 39)" fill="#fff" font-size="22" font-family="Montserrat-SemiBold, Montserrat" font-weight="600" letter-spacing="0.02em"><tspan x="0" y="0">Bruneck</tspan></text>
        <text id="startbase-3" data-name="startbase" transform="translate(0 14)" fill="#ede7ae" font-size="14" font-family="Montserrat-SemiBold, Montserrat" font-weight="600"><tspan x="0" y="0">startbase</tspan></text>
      </g>
      <text id="Sand_in_Taufers" data-name="Sand in Taufers" transform="translate(805.304 142.831)" fill="#fff" font-size="16" font-family="Montserrat-SemiBold, Montserrat" font-weight="600"><tspan x="-63.328" y="0">Sand in Taufers</tspan></text>
      <g id="Raggruppa_1075" data-name="Raggruppa 1075" transform="translate(115.67 272.714)">
        <circle id="Ellisse_2" data-name="Ellisse 2" cx="11.893" cy="11.893" r="11.893" transform="translate(86.817 86.817)" fill="#ede7ae"/>
        <line id="Linea_1" data-name="Linea 1" x2="70.168" y2="72.546" transform="translate(19.623 19.623)" fill="none" stroke="#ede7ae" stroke-width="1" opacity="0"/>
        <g id="Ellisse_9" data-name="Ellisse 9" fill="#ede7ae" stroke="#ede7ae" stroke-width="1">
          <circle cx="11.893" cy="11.893" r="11.893" stroke="none"/>
          <circle cx="11.893" cy="11.893" r="11.393" fill="none"/>
        </g>
      </g>
      <g id="Raggruppa_1076" data-name="Raggruppa 1076" transform="translate(238.166 361.257)">
        <text id="Schlanders" transform="translate(0 37)" fill="#fff" font-size="22" font-family="Montserrat-SemiBold, Montserrat" font-weight="600" letter-spacing="0.02em"><tspan x="0" y="0">Schlanders</tspan></text>
        <text id="startbase-4" data-name="startbase" transform="translate(0 13)" fill="#ede7ae" font-size="13" font-family="Montserrat-SemiBold, Montserrat" font-weight="600"><tspan x="0" y="0">startbase</tspan></text>
      </g>
      <g id="Raggruppa_4500" data-name="Raggruppa 4500" transform="translate(152.166 282.013)">
        <text id="Mals" transform="translate(0 37)" fill="#fff" font-size="22" font-family="Montserrat-SemiBold, Montserrat" font-weight="600" letter-spacing="0.02em"><tspan x="0" y="0">Mals</tspan></text>
        <text id="startbase-5" data-name="startbase" transform="translate(0 13)" fill="#ede7ae" font-size="13" font-family="Montserrat-SemiBold, Montserrat" font-weight="600"><tspan x="0" y="0">startbase</tspan></text>
      </g>
    </g>
  </g>
</svg>
